<svg width="20" height="20" viewBox="0 0 20 20" fill="none" xmlns="http://www.w3.org/2000/svg">
<path d="M14.5 9.99813V10C14.5 12.4955 12.4594 14.5 9.99998 14.5C7.50181 14.5 5.5 12.4982 5.5 10C5.5 7.5045 7.54052 5.5 9.99998 5.5C12.4708 5.5 14.5093 7.50513 14.5 9.99813ZM15.5 5C15.5 5.27614 15.2761 5.5 15 5.5C14.7239 5.5 14.5 5.27614 14.5 5C14.5 4.72386 14.7239 4.5 15 4.5C15.2761 4.5 15.5 4.72386 15.5 5ZM6.29088 9.96894C6.29088 12.0049 7.96401 13.6781 9.99998 13.6781C12.036 13.6781 13.7091 12.0049 13.7091 9.96894C13.7091 7.93297 12.036 6.25983 9.99998 6.25983C7.96401 6.25983 6.29088 7.93297 6.29088 9.96894ZM6.0102 0.5H13.9898C17.029 0.5 19.5 2.97457 19.5 6.0225V14.0184C19.5 17.0522 17.0329 19.5 13.9898 19.5H6.0102C2.97098 19.5 0.5 17.0254 0.5 13.9775V6.0225C0.5 2.97457 2.97098 0.5 6.0102 0.5ZM13.9898 18.6493C16.5424 18.6493 18.6122 16.5737 18.6122 14.0184V6.0225C18.6122 3.46715 16.5424 1.39162 13.9898 1.39162H6.0102C3.45759 1.39162 1.38776 3.46715 1.38776 6.0225V14.0184C1.38776 16.5737 3.45759 18.6493 6.0102 18.6493H13.9898Z" fill="#7D7D7D" stroke="#7D7D7D"/>
</svg>
