<svg width="23" height="22" viewBox="0 0 23 22" fill="none" xmlns="http://www.w3.org/2000/svg">
<path d="M22.2919 18.9888C23.2311 18.0486 23.2376 16.9115 22.3017 15.9526C21.2679 14.8905 20.195 13.8722 19.1091 12.9257C18.1308 12.073 16.9861 12.1136 15.9622 13.0319C15.3132 13.6161 14.8012 14.1002 14.3545 14.5594C14.2729 14.6438 14.2273 14.6687 14.224 14.675C14.211 14.6719 14.1784 14.6625 14.1229 14.6313C11.2206 12.9913 9.11716 10.9672 7.69533 8.44327C7.66924 8.39641 7.6562 8.3683 7.65294 8.34956C7.66598 8.33394 7.68881 8.30583 7.73447 8.2621C8.39646 7.66235 8.9215 7.15319 9.38783 6.65653C10.2781 5.71006 10.2944 4.4887 9.43349 3.62032C8.38342 2.55827 7.38227 1.60243 6.38112 0.696563C5.37997 -0.209301 4.13749 -0.234291 3.14287 0.637214C2.99938 0.765284 2.85263 0.890231 2.70588 1.01518C1.73408 1.84607 0.732928 2.70508 0.175283 3.98579L0.139411 4.09824C-0.0464704 4.951 -0.0464704 5.4914 0.139411 6.33167L0.149194 6.36603C0.95142 9.21482 2.35694 11.8231 4.32664 14.1221C7.56815 17.9049 11.2206 20.3445 15.4861 21.5814C15.7111 21.647 15.9361 21.7064 16.1611 21.7688L16.4676 21.8501L16.5296 21.8626C17.009 21.9469 17.3644 22 17.7101 22C18.0264 22 18.3362 21.9563 18.7276 21.8501L18.7993 21.8251C20.0613 21.3284 20.9092 20.435 21.731 19.5698C21.9169 19.373 22.1028 19.1793 22.2919 18.9888ZM21.3495 18.1235C21.1505 18.3203 20.9581 18.5265 20.7657 18.7295C20.019 19.5167 19.3146 20.2632 18.3395 20.6568C17.8503 20.7849 17.6123 20.7818 16.797 20.6381L16.5166 20.5631C16.3013 20.5038 16.0828 20.4475 15.8676 20.3851C11.8532 19.2199 8.40951 16.9115 5.33757 13.3287C3.48854 11.1734 2.17106 8.72752 1.41449 6.05678C1.27427 5.41955 1.27101 5.05096 1.40471 4.41373C1.85148 3.42353 2.68958 2.70821 3.57333 1.94916C3.72334 1.82109 3.87335 1.68989 4.02336 1.56182C4.506 1.14012 4.98538 1.15262 5.48432 1.60555C6.46917 2.4958 7.45075 3.43915 8.48778 4.48245C9.01933 5.0166 8.67039 5.55075 8.41603 5.82251C7.97579 6.29106 7.47358 6.77835 6.83767 7.35311C6.15936 7.96535 6.30611 8.6057 6.54743 9.03364C8.08666 11.7637 10.3466 13.9472 13.4609 15.7058C13.9175 15.9651 14.6088 16.1213 15.3034 15.4091C15.7306 14.9717 16.2198 14.5063 16.8492 13.9409C17.4557 13.3974 17.8373 13.5099 18.2254 13.8472C19.2852 14.7718 20.3353 15.7652 21.3429 16.8022C21.8125 17.2801 21.8125 17.6612 21.3495 18.1235Z" fill="#193DC9"/>
</svg>
